# xmcd CD database file
#
# Track frame offsets:
#	150
#	12047
#	23507
#	33642
#	45435
#	57455
#	65965
#	74687
#	87135
#	98465
#	109892
#	121595
#	131690
#	143007
#	153022
#	162247
#
# Disc length: 2313 seconds
#
# Revision: 0
# Processed by: cddbd v1.5.2PL0 Copyright (c) Steve Scherf et al.
# Submitted via: CDex 1.51
#
DISCID=cb090710
DTITLE=Don Gibson - Oh Lonesome Me
DYEAR=1997
DGENRE=Country
TTITLE0=Bad, Bad Day
TTITLE1=Take Me As I Am
TTITLE2=I Can't Leave
TTITLE3=I Can't Stop Lovin' You
TTITLE4=Blues In My Heart
TTITLE5=Sweet, Sweet Girl
TTITLE6=Blue, Blue Day
TTITLE7=Heartbreak Avenue
TTITLE8=We Could
TTITLE9=Oh Lonesome Me
TTITLE10=Too Sone To Know
TTITLE11=If You Don't Know It
TTITLE12=Give Myself A Party
TTITLE13=Who Cares
TTITLE14=Just One time
TTITLE15=Sea Of Heartbreak
EXTD=YEAR: 1997
EXTT0=
EXTT1=
EXTT2=
EXTT3=
EXTT4=
EXTT5=
EXTT6=
EXTT7=
EXTT8=
EXTT9=
EXTT10=
EXTT11=
EXTT12=
EXTT13=
EXTT14=
EXTT15=
PLAYORDER=
